# xmcd CD database file
#
# Track frame offsets:
#	150
#	46376
#	122882
#	210463
#
# Disc length: 4058 seconds
#
# Revision: 1
# Processed by: cddbd v1.5.2PL0 Copyright (c) Steve Scherf et al.
# Submitted via: CDex 1.51
#
DISCID=330fd804
DTITLE=Maria W. M. Schmitt - Engelsprechstunde
DYEAR=2008
DGENRE=Kinder-Meditation
TTITLE0=Schutzengel
TTITLE1=Engel der Freundschaft
TTITLE2=Engel der Traeume
TTITLE3=Engel des Vertrauens
EXTD=YEAR: 2008
EXTT0=
EXTT1=
EXTT2=
EXTT3=
PLAYORDER=
